<svg xmlns="http://www.w3.org/2000/svg" width="574.365" height="438.596" viewBox="0 0 574.365 438.596">
  <g id="Group_10595" data-name="Group 10595" transform="translate(-66.165 -28.47)">
    <path id="Path_51855" data-name="Path 51855" d="M105.564,342.546a32.991,32.991,0,0,1,32.894,32.894h0a60.2,60.2,0,0,0,60.017,60.017H562.564a78.195,78.195,0,0,0,77.966-77.964h0a78.2,78.2,0,0,0-77.966-77.965h-2.049a15.692,15.692,0,0,1-15.645-15.647h0a15.692,15.692,0,0,1,15.645-15.647h8.606A38.145,38.145,0,0,0,607.155,210.2h0a38.145,38.145,0,0,0-37.96-38.034H532.081a32.989,32.989,0,0,1-32.892-32.893h0a60.193,60.193,0,0,0-60.016-60.017H192.589a78.2,78.2,0,0,0-77.964,77.965h0a78.194,78.194,0,0,0,77.964,77.964h0a15.692,15.692,0,0,1,15.645,15.648h0a15.69,15.69,0,0,1-15.645,15.644H105.564C55.8,266.477,55.8,342.546,105.564,342.546Z" fill="#b4e1f9" fill-rule="evenodd"/>
    <g id="Group_10572" data-name="Group 10572">
      <path id="Path_51856" data-name="Path 51856" d="M310.57,342.971H385.3l11.716,75.648H298.855Z" fill="#edecf5" fill-rule="evenodd"/>
      <path id="Path_51857" data-name="Path 51857" d="M288.316,417.528H407.558a11.393,11.393,0,0,1,11.361,11.361,3.547,3.547,0,0,1-3.537,3.537H280.489a3.547,3.547,0,0,1-3.537-3.537A11.394,11.394,0,0,1,288.316,417.528Z" fill="#fff" fill-rule="evenodd"/>
      <path id="Rectangle_4470" data-name="Rectangle 4470" d="M11.663,0H320.735A11.662,11.662,0,0,1,332.4,11.662V196.3a11.662,11.662,0,0,1-11.662,11.662H11.663A11.663,11.663,0,0,1,0,196.3V11.663A11.663,11.663,0,0,1,11.663,0Z" transform="translate(180.162 151.451)" fill="#145f91"/>
      <path id="Path_51858" data-name="Path 51858" d="M512.56,341.948V364.3A11.7,11.7,0,0,1,500.9,375.967H191.825A11.7,11.7,0,0,1,180.162,364.3V341.948Z" fill="#fff" fill-rule="evenodd"/>
      <rect id="Rectangle_4471" data-name="Rectangle 4471" width="310.293" height="168.39" transform="translate(191.214 162.503)" fill="#b4e1f9"/>
      <path id="Path_51859" data-name="Path 51859" d="M346.363,349.079a9.23,9.23,0,1,1-9.233,9.23A9.23,9.23,0,0,1,346.363,349.079Z" fill="#e1dfef" fill-rule="evenodd"/>
    </g>
    <path id="Rectangle_4472" data-name="Rectangle 4472" d="M6.5,0H137.589a6.5,6.5,0,0,1,6.5,6.5V90.566a6.5,6.5,0,0,1-6.5,6.5H6.5a6.5,6.5,0,0,1-6.5-6.5V6.5A6.5,6.5,0,0,1,6.5,0Z" transform="translate(442.182 318.583)" fill="#8dc7e0"/>
    <path id="Path_51860" data-name="Path 51860" d="M512.56,341.948V364.3A11.7,11.7,0,0,1,500.9,375.967H442.182V341.948Z" fill="#b4e1f9" fill-rule="evenodd"/>
    <path id="Path_51861" data-name="Path 51861" d="M501.508,318.583v12.31H442.182V325.08a6.516,6.516,0,0,1,6.5-6.5Z" fill="#8dc7e0" fill-rule="evenodd"/>
    <path id="Path_51862" data-name="Path 51862" d="M622.009,432.426H73.862a7.724,7.724,0,0,0-7.7,7.7h0a7.722,7.722,0,0,0,7.7,7.7H99.834a4.289,4.289,0,0,1,4.278,4.275h0a4.29,4.29,0,0,1-4.278,4.279h-9.5a5.363,5.363,0,0,0-5.347,5.343v0a5.362,5.362,0,0,0,5.347,5.344H604.69a5.357,5.357,0,0,0,5.344-5.344v0a5.359,5.359,0,0,0-5.344-5.343h-7.485a4.289,4.289,0,0,1-4.275-4.279h0a4.288,4.288,0,0,1,4.275-4.275h24.8a7.723,7.723,0,0,0,7.7-7.7h0a7.725,7.725,0,0,0-7.7-7.7ZM618,467.066a5.147,5.147,0,0,1-5.132-5.132v-.425A5.147,5.147,0,0,1,618,456.377h0a5.145,5.145,0,0,1,5.132,5.132v.425A5.146,5.146,0,0,1,618,467.066Z" fill="#145f91" fill-rule="evenodd"/>
    <path id="Path_51863" data-name="Path 51863" d="M537.152,166.471a3.477,3.477,0,1,0-3.477-3.477A3.484,3.484,0,0,0,537.152,166.471Z" fill="#fff" fill-rule="evenodd"/>
    <g id="Group_10576" data-name="Group 10576">
      <rect id="Rectangle_4473" data-name="Rectangle 4473" width="128.129" height="124.618" rx="6.728" transform="translate(358.004 175.274)" fill="#b4e1f9"/>
      <rect id="Rectangle_4474" data-name="Rectangle 4474" width="128.127" height="124.616" rx="6.727" transform="translate(362.972 172.046)" fill="#36234d"/>
      <path id="Rectangle_4475" data-name="Rectangle 4475" d="M2.193,0H92.586A2.194,2.194,0,0,1,94.78,2.194V12.871a2.194,2.194,0,0,1-2.194,2.194H2.2A2.2,2.2,0,0,1,0,12.87V2.193A2.193,2.193,0,0,1,2.193,0Z" transform="translate(372.622 176.868)" fill="#fff"/>
      <path id="Rectangle_4476" data-name="Rectangle 4476" d="M2.151,0H12.62a2.152,2.152,0,0,1,2.152,2.152V12.913a2.152,2.152,0,0,1-2.152,2.152H2.149A2.149,2.149,0,0,1,0,12.916V2.151A2.151,2.151,0,0,1,2.151,0Z" transform="translate(471.427 176.868)" fill="#94d6f2"/>
      <path id="Rectangle_4477" data-name="Rectangle 4477" d="M3.947,0H90.833A3.947,3.947,0,0,1,94.78,3.947V83.226a3.945,3.945,0,0,1-3.945,3.945H3.945A3.945,3.945,0,0,1,0,83.226V3.947A3.947,3.947,0,0,1,3.947,0Z" transform="translate(372.622 196.175)" fill="#fff"/>
      <path id="Path_51864" data-name="Path 51864" d="M459.119,201.511a2.065,2.065,0,1,1-2.067,2.064,2.065,2.065,0,0,1,2.067-2.064Zm-15.1,0a2.064,2.064,0,1,1-2.066,2.064,2.063,2.063,0,0,1,2.066-2.064Zm7.55,0a2.064,2.064,0,1,1-2.064,2.064A2.066,2.066,0,0,1,451.564,201.511Z" fill="#ecbe8d" fill-rule="evenodd"/>
      <g id="Group_10573" data-name="Group 10573">
        <path id="Path_51865" data-name="Path 51865" d="M386.517,231.786h73.959a.71.71,0,0,1,.708.707h0a.709.709,0,0,1-.708.709H386.517a.708.708,0,0,1-.708-.709h0A.708.708,0,0,1,386.517,231.786Z" fill="#c7c2df" fill-rule="evenodd"/>
        <path id="Path_51866" data-name="Path 51866" d="M380.023,233.674a1.18,1.18,0,1,0-1.182-1.181A1.181,1.181,0,0,0,380.023,233.674Z" fill="#c7c2df" fill-rule="evenodd"/>
        <path id="Path_51867" data-name="Path 51867" d="M386.517,237.829h73.959a.709.709,0,0,1,.708.708h0a.711.711,0,0,1-.708.709H386.517a.71.71,0,0,1-.708-.709h0A.708.708,0,0,1,386.517,237.829Z" fill="#c7c2df" fill-rule="evenodd"/>
        <path id="Path_51868" data-name="Path 51868" d="M380.023,239.717a1.18,1.18,0,1,0-1.182-1.18A1.181,1.181,0,0,0,380.023,239.717Z" fill="#c7c2df" fill-rule="evenodd"/>
        <path id="Path_51869" data-name="Path 51869" d="M386.517,243.873h73.959a.708.708,0,0,1,.708.707h0a.709.709,0,0,1-.708.708H386.517a.707.707,0,0,1-.708-.708h0A.707.707,0,0,1,386.517,243.873Z" fill="#c7c2df" fill-rule="evenodd"/>
        <path id="Path_51870" data-name="Path 51870" d="M380.023,245.761a1.181,1.181,0,1,0-1.182-1.181A1.181,1.181,0,0,0,380.023,245.761Z" fill="#c7c2df" fill-rule="evenodd"/>
        <path id="Path_51871" data-name="Path 51871" d="M386.517,249.916h73.959a.708.708,0,0,1,.708.708h0a.711.711,0,0,1-.708.709H386.517a.71.71,0,0,1-.708-.709h0A.707.707,0,0,1,386.517,249.916Z" fill="#c7c2df" fill-rule="evenodd"/>
        <path id="Path_51872" data-name="Path 51872" d="M380.023,251.8a1.18,1.18,0,1,0-1.182-1.179A1.18,1.18,0,0,0,380.023,251.8Z" fill="#c7c2df" fill-rule="evenodd"/>
        <path id="Path_51873" data-name="Path 51873" d="M386.517,255.96h73.959a.708.708,0,0,1,.708.706h0a.709.709,0,0,1-.708.708H386.517a.708.708,0,0,1-.708-.708h0A.707.707,0,0,1,386.517,255.96Z" fill="#c7c2df" fill-rule="evenodd"/>
        <path id="Path_51874" data-name="Path 51874" d="M380.023,257.847a1.18,1.18,0,1,0-1.182-1.179A1.181,1.181,0,0,0,380.023,257.847Z" fill="#c7c2df" fill-rule="evenodd"/>
        <path id="Path_51875" data-name="Path 51875" d="M386.517,262h73.959a.711.711,0,0,1,.708.709h0a.71.71,0,0,1-.708.709H386.517a.708.708,0,0,1-.708-.709h0A.71.71,0,0,1,386.517,262Z" fill="#c7c2df" fill-rule="evenodd"/>
        <path id="Path_51876" data-name="Path 51876" d="M380.023,263.891a1.18,1.18,0,1,0-1.182-1.181A1.182,1.182,0,0,0,380.023,263.891Z" fill="#c7c2df" fill-rule="evenodd"/>
        <path id="Path_51877" data-name="Path 51877" d="M386.517,268.046h73.959a.709.709,0,0,1,.708.708h0a.711.711,0,0,1-.708.709H386.517a.71.71,0,0,1-.708-.709h0A.707.707,0,0,1,386.517,268.046Z" fill="#c7c2df" fill-rule="evenodd"/>
        <path id="Path_51878" data-name="Path 51878" d="M380.023,269.933a1.181,1.181,0,1,0-1.182-1.179A1.18,1.18,0,0,0,380.023,269.933Z" fill="#c7c2df" fill-rule="evenodd"/>
        <path id="Path_51879" data-name="Path 51879" d="M386.517,274.09h73.959a.709.709,0,0,1,.708.709h0a.709.709,0,0,1-.708.706H386.517a.708.708,0,0,1-.708-.706h0A.708.708,0,0,1,386.517,274.09Z" fill="#c7c2df" fill-rule="evenodd"/>
        <path id="Path_51880" data-name="Path 51880" d="M380.023,275.977a1.18,1.18,0,1,0-1.182-1.181A1.182,1.182,0,0,0,380.023,275.977Z" fill="#c7c2df" fill-rule="evenodd"/>
        <path id="Rectangle_4478" data-name="Rectangle 4478" d="M1.415,0H27.476a1.415,1.415,0,0,1,1.415,1.415v0a1.416,1.416,0,0,1-1.416,1.416H1.416A1.416,1.416,0,0,1,0,1.416v0A1.415,1.415,0,0,1,1.415,0Z" transform="translate(407.648 224.196)" fill="#c7c2df"/>
        <path id="Rectangle_4479" data-name="Rectangle 4479" d="M1.415,0H19.832a1.415,1.415,0,0,1,1.415,1.415v0a1.416,1.416,0,0,1-1.416,1.416H1.416A1.416,1.416,0,0,1,0,1.416v0A1.415,1.415,0,0,1,1.415,0Z" transform="translate(439.937 224.196)" fill="#c7c2df"/>
      </g>
      <path id="Path_51881" data-name="Path 51881" d="M474.962,180.553a4.114,4.114,0,0,1,2.916-1.207h.006A4.119,4.119,0,0,1,482,183.468v.005a4.132,4.132,0,0,1-.819,2.47l2.511,2.511a.587.587,0,0,1-.83.829l-2.511-2.512a4.114,4.114,0,0,1-2.473.822h-.005a4.118,4.118,0,0,1-4.12-4.122v-.006a4.1,4.1,0,0,1,1.206-2.912Zm2.919-.037a2.958,2.958,0,1,0,2.086.866A2.94,2.94,0,0,0,477.881,180.516Z" fill="#fff" fill-rule="evenodd"/>
      <path id="Path_51882" data-name="Path 51882" d="M383.034,186.391h73.959a.709.709,0,0,1,.709.707h0a.708.708,0,0,1-.709.708H383.034a.708.708,0,0,1-.708-.708h0A.709.709,0,0,1,383.034,186.391Z" fill="#36234d" fill-rule="evenodd"/>
      <g id="Group_10574" data-name="Group 10574">
        <path id="Path_51883" data-name="Path 51883" d="M408.541,201.511h16.552a.989.989,0,0,1,.893,1.059h0a.989.989,0,0,1-.893,1.059H408.541a.989.989,0,0,1-.893-1.059h0A.989.989,0,0,1,408.541,201.511Z" fill="#8f87a9" fill-rule="evenodd"/>
        <path id="Path_51884" data-name="Path 51884" d="M408.541,206.173h9.379a.988.988,0,0,1,.891,1.059h0a.99.99,0,0,1-.891,1.061h-9.379a.991.991,0,0,1-.893-1.061h0A.989.989,0,0,1,408.541,206.173Z" fill="#8f87a9" fill-rule="evenodd"/>
        <path id="Path_51885" data-name="Path 51885" d="M421.1,206.173h1.369a.989.989,0,0,1,.893,1.059h0a.991.991,0,0,1-.893,1.061H421.1a.989.989,0,0,1-.892-1.061h0A.987.987,0,0,1,421.1,206.173Z" fill="#8f87a9" fill-rule="evenodd"/>
        <path id="Path_51886" data-name="Path 51886" d="M408.541,219.031h8.424a.989.989,0,0,0,.894-1.059h0a.99.99,0,0,0-.894-1.06h-8.424a.99.99,0,0,0-.893,1.06h0A.989.989,0,0,0,408.541,219.031Z" fill="#8f87a9" fill-rule="evenodd"/>
        <path id="Path_51887" data-name="Path 51887" d="M408.541,214.368h11.64a.989.989,0,0,0,.893-1.059h0a.99.99,0,0,0-.893-1.06h-11.64a.99.99,0,0,0-.893,1.06h0A.989.989,0,0,0,408.541,214.368Z" fill="#8f87a9" fill-rule="evenodd"/>
        <path id="Path_51888" data-name="Path 51888" d="M423.649,214.368h2.01a.99.99,0,0,0,.894-1.059h0a.99.99,0,0,0-.894-1.06h-2.01a.989.989,0,0,0-.893,1.06h0A.989.989,0,0,0,423.649,214.368Z" fill="#8f87a9" fill-rule="evenodd"/>
      </g>
      <rect id="Rectangle_4480" data-name="Rectangle 4480" width="23.582" height="24.927" rx="1.034" transform="translate(379.991 201.234)" fill="#36234d"/>
      <g id="Group_10575" data-name="Group 10575">
        <path id="Path_51889" data-name="Path 51889" d="M385.3,211.515h12.966a1.4,1.4,0,0,1,1.393,1.4v8.173a1.4,1.4,0,0,1-1.393,1.393H385.3a1.395,1.395,0,0,1-1.394-1.393V212.91a1.4,1.4,0,0,1,1.394-1.4Zm12.966.96H385.3a.448.448,0,0,0-.31.127.442.442,0,0,0-.127.308v8.173a.434.434,0,0,0,.437.435h12.966a.439.439,0,0,0,.306-.127.434.434,0,0,0,.127-.308V212.91a.434.434,0,0,0-.127-.308A.444.444,0,0,0,398.267,212.475Z" fill="#fff" fill-rule="evenodd"/>
        <path id="Path_51890" data-name="Path 51890" d="M384.61,211.515h14.347a.56.56,0,0,0,.394-.162.566.566,0,0,0,.161-.393v-2.091a.57.57,0,0,0-.161-.393.56.56,0,0,0-.394-.162H384.61a.557.557,0,0,0-.557.555v2.091a.557.557,0,0,0,.557.555Zm14.347.96H384.61a1.516,1.516,0,0,1-1.514-1.515v-2.091a1.521,1.521,0,0,1,1.514-1.515h14.347a1.521,1.521,0,0,1,1.515,1.515v2.091a1.521,1.521,0,0,1-1.515,1.515Z" fill="#fff" fill-rule="evenodd"/>
        <path id="Path_51891" data-name="Path 51891" d="M398.169,207.834a.385.385,0,0,1-.77,0V206.2a1.238,1.238,0,0,0-1.232-1.234H387.4a1.236,1.236,0,0,0-1.234,1.234v1.632a.383.383,0,0,1-.767,0V206.2a2.006,2.006,0,0,1,2-2h8.768a2.011,2.011,0,0,1,2,2Z" fill="#fff" fill-rule="evenodd"/>
      </g>
      <path id="Path_51892" data-name="Path 51892" d="M391.06,214.068h1.448a.335.335,0,0,1,.333.332v1.439h1.436a.333.333,0,0,1,.333.331v1.449a.334.334,0,0,1-.333.333h-1.436v1.437a.334.334,0,0,1-.333.332H391.06a.334.334,0,0,1-.334-.332v-1.437H389.29a.333.333,0,0,1-.333-.333V216.17a.332.332,0,0,1,.333-.331h1.436V214.4A.335.335,0,0,1,391.06,214.068Z" fill="#fff" fill-rule="evenodd"/>
    </g>
    <path id="Path_51893" data-name="Path 51893" d="M566.054,238.982a29.647,29.647,0,1,0-29.648-29.648A29.7,29.7,0,0,0,566.054,238.982Z" fill="#fff" fill-rule="evenodd"/>
    <path id="Path_51894" data-name="Path 51894" d="M566.054,215.468a3.942,3.942,0,0,1,2.787,6.73l0,0a3.941,3.941,0,1,1-2.784-6.732ZM551,205.339a1.742,1.742,0,1,1-2.549-2.374,24.074,24.074,0,0,1,35.2,0,1.742,1.742,0,1,1-2.549,2.374,20.582,20.582,0,0,0-30.107,0Zm4.582,4.282a14.319,14.319,0,0,1,20.943,0,1.742,1.742,0,1,0,2.549-2.376,17.818,17.818,0,0,0-26.043,0,1.743,1.743,0,0,0,2.551,2.376Zm5.249,4.9a1.743,1.743,0,0,1-2.552-2.374,10.639,10.639,0,0,1,15.547,0,1.742,1.742,0,1,1-2.549,2.374,7.142,7.142,0,0,0-10.446,0Z" fill="#36234d" fill-rule="evenodd"/>
    <g id="Group_10580" data-name="Group 10580">
      <g id="Group_10577" data-name="Group 10577">
        <path id="Rectangle_4481" data-name="Rectangle 4481" d="M1.756,0H5.772A1.755,1.755,0,0,1,7.527,1.755V5.77A1.758,1.758,0,0,1,5.769,7.527H1.755A1.755,1.755,0,0,1,0,5.772V1.756A1.756,1.756,0,0,1,1.756,0Z" transform="translate(199.014 404.176)" fill="#8dc7e0"/>
        <path id="Rectangle_4482" data-name="Rectangle 4482" d="M1.756,0H5.772A1.755,1.755,0,0,1,7.527,1.755V5.77A1.758,1.758,0,0,1,5.769,7.527H1.755A1.755,1.755,0,0,1,0,5.772V1.756A1.756,1.756,0,0,1,1.756,0Z" transform="translate(212.938 404.176)" fill="#fff"/>
        <path id="Rectangle_4483" data-name="Rectangle 4483" d="M1.756,0H5.771A1.756,1.756,0,0,1,7.527,1.756V5.77A1.758,1.758,0,0,1,5.77,7.527H1.758A1.758,1.758,0,0,1,0,5.77V1.756A1.756,1.756,0,0,1,1.756,0Z" transform="translate(226.861 404.176)" fill="#8dc7e0"/>
        <path id="Rectangle_4484" data-name="Rectangle 4484" d="M1.756,0H5.772A1.755,1.755,0,0,1,7.527,1.755V5.77A1.758,1.758,0,0,1,5.769,7.527H1.756A1.756,1.756,0,0,1,0,5.772V1.756A1.756,1.756,0,0,1,1.756,0Z" transform="translate(240.784 404.176)" fill="#fff"/>
        <path id="Rectangle_4485" data-name="Rectangle 4485" d="M1.756,0H5.769A1.756,1.756,0,0,1,7.525,1.756V5.77A1.758,1.758,0,0,1,5.767,7.527H1.755A1.755,1.755,0,0,1,0,5.772V1.756A1.756,1.756,0,0,1,1.756,0Z" transform="translate(254.71 404.176)" fill="#8dc7e0"/>
        <path id="Rectangle_4486" data-name="Rectangle 4486" d="M1.756,0H5.772A1.753,1.753,0,0,1,7.525,1.753v4.02A1.756,1.756,0,0,1,5.769,7.528H1.756A1.756,1.756,0,0,1,0,5.772V1.756A1.756,1.756,0,0,1,1.756,0Z" transform="translate(227.366 388.996)" fill="#fff"/>
        <path id="Rectangle_4487" data-name="Rectangle 4487" d="M1.756,0H5.769A1.755,1.755,0,0,1,7.525,1.755V5.772A1.756,1.756,0,0,1,5.769,7.528H1.756A1.756,1.756,0,0,1,0,5.772V1.756A1.756,1.756,0,0,1,1.756,0Z" transform="translate(241.289 388.996)" fill="#8dc7e0"/>
        <path id="Rectangle_4488" data-name="Rectangle 4488" d="M1.756,0H5.769A1.755,1.755,0,0,1,7.524,1.755V5.772A1.756,1.756,0,0,1,5.769,7.528H1.755A1.755,1.755,0,0,1,0,5.773V1.756A1.756,1.756,0,0,1,1.756,0Z" transform="translate(255.213 388.996)" fill="#fff"/>
      </g>
      <path id="Path_51895" data-name="Path 51895" d="M320.586,120.17a.926.926,0,1,1,1.853,0v4.17a.926.926,0,0,1-1.853,0v-4.17Zm-6.316,3.384a.927.927,0,1,1,1.311-1.31l2.948,2.948a.927.927,0,0,1-1.311,1.31l-2.948-2.948Zm-2.073,6.861a.926.926,0,1,1,0-1.853h4.167a.926.926,0,1,1,0,1.853Zm3.384,6.317a.927.927,0,1,1-1.311-1.31l2.948-2.948a.927.927,0,0,1,1.311,1.31l-2.948,2.948Zm6.858,2.074a.926.926,0,1,1-1.853,0v-4.169a.926.926,0,1,1,1.853,0v4.169Zm6.32-3.384a.927.927,0,0,1-1.312,1.31l-2.948-2.948a.927.927,0,1,1,1.312-1.31l2.948,2.948Zm2.073-6.86a.926.926,0,0,1,0,1.853h-4.17a.926.926,0,0,1,0-1.853Zm-3.385-6.318a.927.927,0,0,1,1.312,1.31l-2.948,2.948a.927.927,0,0,1-1.312-1.31Z" fill="#8dc7e0" fill-rule="evenodd"/>
      <path id="Path_51896" data-name="Path 51896" d="M138.273,156.164a.927.927,0,0,1,1.854,0v4.17a.927.927,0,1,1-1.854,0v-4.17Zm-6.316,3.386a.927.927,0,0,1,1.311-1.311l2.948,2.948a.927.927,0,1,1-1.312,1.31l-2.947-2.947Zm-2.074,6.858a.927.927,0,1,1,0-1.853h4.17a.927.927,0,0,1,0,1.853Zm3.385,6.318a.927.927,0,0,1-1.311-1.31l2.947-2.948a.927.927,0,0,1,1.312,1.31l-2.948,2.948Zm6.859,2.075a.927.927,0,0,1-1.854,0v-4.17a.927.927,0,1,1,1.854,0v4.17Zm6.318-3.385a.927.927,0,1,1-1.311,1.31l-2.948-2.948a.927.927,0,1,1,1.312-1.31l2.947,2.948Zm2.074-6.861a.927.927,0,1,1,0,1.853h-4.17a.927.927,0,0,1,0-1.853Zm-3.385-6.316a.927.927,0,0,1,1.311,1.311L143.5,162.5a.927.927,0,1,1-1.312-1.31Z" fill="#8dc7e0" fill-rule="evenodd"/>
      <path id="Path_51897" data-name="Path 51897" d="M529.189,232a.926.926,0,0,1,1.853,0v4.17a.926.926,0,1,1-1.853,0V232Zm-6.318,3.385a.927.927,0,1,1,1.312-1.31l2.946,2.947a.926.926,0,0,1-1.31,1.31l-2.948-2.947Zm-2.075,6.861a.927.927,0,0,1,0-1.854h4.17a.927.927,0,1,1,0,1.854Zm3.387,6.317a.927.927,0,0,1-1.312-1.311l2.948-2.948a.926.926,0,1,1,1.31,1.31l-2.946,2.949Zm6.859,2.073a.926.926,0,1,1-1.853,0v-4.169a.926.926,0,1,1,1.853,0v4.169Zm6.316-3.384a.926.926,0,0,1-1.308,1.311L533.1,245.61a.927.927,0,1,1,1.311-1.31l2.945,2.948Zm2.076-6.86a.927.927,0,0,1,0,1.854h-4.17a.927.927,0,1,1,0-1.854Zm-3.384-6.317a.926.926,0,1,1,1.308,1.31l-2.945,2.947a.927.927,0,0,1-1.311-1.31Z" fill="#8dc7e0" fill-rule="evenodd"/>
      <path id="Path_51898" data-name="Path 51898" d="M150.264,191.3a3.477,3.477,0,1,0-3.477-3.478A3.484,3.484,0,0,0,150.264,191.3Z" fill="#fff" fill-rule="evenodd"/>
      <path id="Path_51899" data-name="Path 51899" d="M361.483,110.079a3.477,3.477,0,1,0-3.477-3.478A3.483,3.483,0,0,0,361.483,110.079Z" fill="#fff" fill-rule="evenodd"/>
      <path id="Path_51900" data-name="Path 51900" d="M527.716,298.084a3.477,3.477,0,1,0-3.478-3.477A3.484,3.484,0,0,0,527.716,298.084Z" fill="#fff" fill-rule="evenodd"/>
      <path id="Path_51901" data-name="Path 51901" d="M615.108,335.676a3.477,3.477,0,1,0-3.477-3.476A3.484,3.484,0,0,0,615.108,335.676Z" fill="#fff" fill-rule="evenodd"/>
      <path id="Path_51902" data-name="Path 51902" d="M410.532,91.712a.927.927,0,0,1,1.854,0v4.17a.927.927,0,1,1-1.854,0v-4.17ZM404.216,95.1a.927.927,0,1,1,1.311-1.312l2.949,2.949a.927.927,0,0,1-1.312,1.311L404.216,95.1Zm-2.073,6.86a.927.927,0,1,1,0-1.854h4.167a.927.927,0,1,1,0,1.854Zm3.384,6.318a.927.927,0,1,1-1.311-1.312l2.948-2.948a.928.928,0,0,1,1.312,1.312l-2.949,2.948Zm6.859,2.073a.927.927,0,0,1-1.854,0V106.18a.927.927,0,1,1,1.854,0v4.169Zm6.319-3.385a.927.927,0,0,1-1.311,1.312l-2.949-2.948a.928.928,0,1,1,1.312-1.312l2.948,2.948Zm2.073-6.86a.927.927,0,0,1,0,1.854h-4.17a.927.927,0,0,1,0-1.854Zm-3.384-6.318A.927.927,0,0,1,418.7,95.1l-2.948,2.948a.927.927,0,1,1-1.312-1.311Z" fill="#fff" fill-rule="evenodd"/>
      <path id="Path_51903" data-name="Path 51903" d="M608.075,364.288a.927.927,0,0,1,1.854,0v4.17a.927.927,0,1,1-1.854,0v-4.17Zm-6.316,3.385a.927.927,0,1,1,1.311-1.31l2.948,2.948a.926.926,0,0,1-1.311,1.309l-2.948-2.947Zm-2.073,6.86a.927.927,0,1,1,0-1.854h4.167a.927.927,0,1,1,0,1.854Zm3.384,6.317a.926.926,0,0,1-1.311-1.309l2.948-2.949a.927.927,0,0,1,1.311,1.31l-2.948,2.948Zm6.859,2.076a.927.927,0,0,1-1.854,0v-4.17a.927.927,0,1,1,1.854,0v4.17Zm6.319-3.385a.926.926,0,1,1-1.311,1.309l-2.949-2.948a.927.927,0,0,1,1.312-1.31l2.948,2.949Zm2.072-6.862a.927.927,0,0,1,0,1.854h-4.169a.927.927,0,0,1,0-1.854Zm-3.383-6.316a.927.927,0,0,1,1.311,1.31L613.3,370.62a.927.927,0,0,1-1.312-1.309Z" fill="#8dc7e0" fill-rule="evenodd"/>
      <g id="Group_10578" data-name="Group 10578">
        <path id="Rectangle_4489" data-name="Rectangle 4489" d="M.782,0h1.8A.782.782,0,0,1,3.36.782V2.575a.785.785,0,0,1-.785.785H.785A.785.785,0,0,1,0,2.575V.782A.782.782,0,0,1,.782,0Z" transform="translate(129.714 332.263)" fill="#8dc7e0"/>
        <path id="Rectangle_4490" data-name="Rectangle 4490" d="M.782,0H2.575a.786.786,0,0,1,.786.786v1.79a.785.785,0,0,1-.785.785H.783A.783.783,0,0,1,0,2.578V.782A.782.782,0,0,1,.782,0Z" transform="translate(135.93 332.263)" fill="#fff"/>
        <path id="Rectangle_4491" data-name="Rectangle 4491" d="M.782,0H2.575A.785.785,0,0,1,3.36.785v1.79a.785.785,0,0,1-.785.785H.783A.783.783,0,0,1,0,2.578V.782A.782.782,0,0,1,.782,0Z" transform="translate(142.147 332.263)" fill="#8dc7e0"/>
        <path id="Rectangle_4492" data-name="Rectangle 4492" d="M.782,0h1.8a.783.783,0,0,1,.783.783V2.575a.785.785,0,0,1-.785.785H.786A.786.786,0,0,1,0,2.575V.782A.782.782,0,0,1,.782,0Z" transform="translate(148.362 332.263)" fill="#fff"/>
        <path id="Rectangle_4493" data-name="Rectangle 4493" d="M.782,0H2.575a.786.786,0,0,1,.786.786V2.575a.785.785,0,0,1-.785.785H.783A.783.783,0,0,1,0,2.578V.782A.782.782,0,0,1,.782,0Z" transform="translate(154.581 332.263)" fill="#8dc7e0"/>
        <path id="Rectangle_4494" data-name="Rectangle 4494" d="M.785,0H2.578A.782.782,0,0,1,3.36.782v1.8a.782.782,0,0,1-.782.782H.782A.782.782,0,0,1,0,2.578V.785A.785.785,0,0,1,.785,0Z" transform="translate(142.371 325.487)" fill="#fff"/>
        <path id="Rectangle_4495" data-name="Rectangle 4495" d="M.785,0H2.578A.783.783,0,0,1,3.36.783v1.8a.782.782,0,0,1-.782.782H.785A.785.785,0,0,1,0,2.575V.785A.785.785,0,0,1,.785,0Z" transform="translate(148.587 325.487)" fill="#8dc7e0"/>
        <path id="Rectangle_4496" data-name="Rectangle 4496" d="M.785,0H2.578a.783.783,0,0,1,.783.783v1.8a.782.782,0,0,1-.782.782H.785A.785.785,0,0,1,0,2.575V.785A.785.785,0,0,1,.785,0Z" transform="translate(154.803 325.487)" fill="#fff"/>
      </g>
      <g id="Group_10579" data-name="Group 10579">
        <path id="Rectangle_4497" data-name="Rectangle 4497" d="M1.386,0H4.554A1.385,1.385,0,0,1,5.938,1.385V4.554A1.386,1.386,0,0,1,4.553,5.94H1.386A1.386,1.386,0,0,1,0,4.554V1.386A1.386,1.386,0,0,1,1.386,0Z" transform="translate(411.19 133.354)" fill="#8dc7e0"/>
        <path id="Rectangle_4498" data-name="Rectangle 4498" d="M1.386,0H4.553A1.389,1.389,0,0,1,5.941,1.389V4.554A1.386,1.386,0,0,1,4.556,5.94H1.386A1.386,1.386,0,0,1,0,4.554V1.386A1.386,1.386,0,0,1,1.386,0Z" transform="translate(422.177 133.354)" fill="#fff"/>
        <rect id="Rectangle_4499" data-name="Rectangle 4499" width="5.938" height="5.94" rx="1.386" transform="translate(433.165 133.354)" fill="#8dc7e0"/>
        <path id="Rectangle_4500" data-name="Rectangle 4500" d="M1.386,0h3.17A1.385,1.385,0,0,1,5.94,1.385V4.554A1.386,1.386,0,0,1,4.555,5.94H1.386A1.386,1.386,0,0,1,0,4.554V1.386A1.386,1.386,0,0,1,1.386,0Z" transform="translate(444.151 133.354)" fill="#fff"/>
        <rect id="Rectangle_4501" data-name="Rectangle 4501" width="5.941" height="5.94" rx="1.386" transform="translate(455.14 133.354)" fill="#8dc7e0"/>
        <path id="Rectangle_4502" data-name="Rectangle 4502" d="M1.387,0H4.556A1.386,1.386,0,0,1,5.941,1.386V4.554A1.385,1.385,0,0,1,4.556,5.939H1.386A1.386,1.386,0,0,1,0,4.554V1.387A1.387,1.387,0,0,1,1.387,0Z" transform="translate(433.562 121.376)" fill="#fff"/>
        <path id="Rectangle_4503" data-name="Rectangle 4503" d="M1.387,0H4.553A1.386,1.386,0,0,1,5.938,1.386V4.554A1.385,1.385,0,0,1,4.553,5.939H1.385A1.385,1.385,0,0,1,0,4.555V1.387A1.387,1.387,0,0,1,1.387,0Z" transform="translate(444.551 121.376)" fill="#8dc7e0"/>
        <path id="Rectangle_4504" data-name="Rectangle 4504" d="M1.387,0H4.556A1.386,1.386,0,0,1,5.941,1.386V4.554A1.385,1.385,0,0,1,4.556,5.939H1.389A1.389,1.389,0,0,1,0,4.551V1.387A1.387,1.387,0,0,1,1.387,0Z" transform="translate(455.536 121.376)" fill="#fff"/>
      </g>
    </g>
    <g id="Group_10581" data-name="Group 10581">
      <path id="Path_51904" data-name="Path 51904" d="M204.1,107.494a14.792,14.792,0,0,1,0,29.584h-12.93c-1.007,3.857-4.042,4.838-6.866,4.838H163.177a7.148,7.148,0,0,1-7.113-4.838H143.4a6.1,6.1,0,0,1-.465-12.189c-.021-.294-.035-.59-.035-.891A12.151,12.151,0,0,1,160,112.906a21.148,21.148,0,0,1,40.506-4.973A14.92,14.92,0,0,1,204.1,107.494Z" fill="#8dc7e0" fill-rule="evenodd"/>
      <path id="Path_51905" data-name="Path 51905" d="M204.413,104.763a14.793,14.793,0,1,1,0,29.585h-60.7a6.1,6.1,0,0,1-.465-12.19q-.031-.439-.032-.888a12.147,12.147,0,0,1,17.094-11.094,21.15,21.15,0,0,1,40.508-4.973A14.858,14.858,0,0,1,204.413,104.763Z" fill="#fff" fill-rule="evenodd"/>
      <path id="Path_51906" data-name="Path 51906" d="M190.252,131.342V119.158h4.108l-9.449-13.2H183.33l-11.034,13.2h4.112v.106c0,14.417.417,15.084-10.344,15.084H189.9A11.851,11.851,0,0,0,190.252,131.342Z" fill="#e0e7f5" fill-rule="evenodd"/>
      <path id="Path_51907" data-name="Path 51907" d="M191.833,131.342V119.158h4.111l-11.033-13.2-11.034,13.2h4.112v.106c0,14.417.42,15.084-10.343,15.084H156.382a7.142,7.142,0,0,0,7.11,4.838h21.125c2.824,0,5.86-.981,6.869-4.838A11.9,11.9,0,0,0,191.833,131.342Z" fill="#36234d" fill-rule="evenodd"/>
    </g>
    <g id="Group_10587" data-name="Group 10587">
      <path id="Rectangle_4505" data-name="Rectangle 4505" d="M6.5,0H137.59a6.5,6.5,0,0,1,6.5,6.5V90.568a6.5,6.5,0,0,1-6.5,6.5H6.5a6.5,6.5,0,0,1-6.5-6.5V6.5A6.5,6.5,0,0,1,6.5,0Z" transform="translate(446.727 312.489)" fill="#36234d"/>
      <path id="Rectangle_4506" data-name="Rectangle 4506" d="M3.046,0H30.29a3.049,3.049,0,0,1,3.049,3.049V28.955A3.048,3.048,0,0,1,30.291,32H3.049A3.049,3.049,0,0,1,0,28.954V3.046A3.046,3.046,0,0,1,3.046,0Z" transform="translate(456.287 320.349)" fill="#fff"/>
      <g id="Group_10582" data-name="Group 10582">
        <path id="Path_51908" data-name="Path 51908" d="M472.955,349.233a12.883,12.883,0,1,0-12.882-12.885A12.907,12.907,0,0,0,472.955,349.233Z" fill="#94d6f2" fill-rule="evenodd"/>
        <path id="Path_51909" data-name="Path 51909" d="M479.618,344.794a10.754,10.754,0,0,1-13.326,0,6.687,6.687,0,0,1,6.663-6.449h0a6.687,6.687,0,0,1,6.663,6.449Zm-6.663-17.61a4.786,4.786,0,1,1-4.786,4.786A4.785,4.785,0,0,1,472.955,327.184Z" fill="#fff" fill-rule="evenodd"/>
      </g>
      <g id="Group_10583" data-name="Group 10583">
        <path id="Path_51910" data-name="Path 51910" d="M463.96,357.112h73.961a.707.707,0,0,1,.706.706h0a.708.708,0,0,1-.706.708H463.96a.707.707,0,0,1-.708-.708h0A.707.707,0,0,1,463.96,357.112Z" fill="#ebe8f3" fill-rule="evenodd"/>
        <path id="Path_51911" data-name="Path 51911" d="M457.467,359a1.181,1.181,0,1,0-1.18-1.182A1.185,1.185,0,0,0,457.467,359Z" fill="#ebe8f3" fill-rule="evenodd"/>
        <path id="Path_51912" data-name="Path 51912" d="M463.96,363.153h73.961a.71.71,0,0,1,.706.709h0a.71.71,0,0,1-.706.709H463.96a.71.71,0,0,1-.708-.709h0A.709.709,0,0,1,463.96,363.153Z" fill="#ebe8f3" fill-rule="evenodd"/>
        <path id="Path_51913" data-name="Path 51913" d="M457.467,365.042a1.18,1.18,0,1,0-1.18-1.18A1.182,1.182,0,0,0,457.467,365.042Z" fill="#ebe8f3" fill-rule="evenodd"/>
        <path id="Path_51914" data-name="Path 51914" d="M463.96,369.2h73.961a.708.708,0,0,1,.706.708h0a.707.707,0,0,1-.706.706H463.96a.707.707,0,0,1-.708-.706h0A.707.707,0,0,1,463.96,369.2Z" fill="#ebe8f3" fill-rule="evenodd"/>
        <path id="Path_51915" data-name="Path 51915" d="M457.467,371.086a1.181,1.181,0,1,0-1.18-1.18A1.184,1.184,0,0,0,457.467,371.086Z" fill="#ebe8f3" fill-rule="evenodd"/>
        <path id="Path_51916" data-name="Path 51916" d="M463.96,375.239h73.961a.71.71,0,0,1,.706.709h0a.708.708,0,0,1-.706.709H463.96a.708.708,0,0,1-.708-.709h0A.709.709,0,0,1,463.96,375.239Z" fill="#ebe8f3" fill-rule="evenodd"/>
        <path id="Path_51917" data-name="Path 51917" d="M457.467,377.13a1.181,1.181,0,1,0-1.18-1.182A1.185,1.185,0,0,0,457.467,377.13Z" fill="#ebe8f3" fill-rule="evenodd"/>
        <path id="Path_51918" data-name="Path 51918" d="M463.96,381.284h73.961a.707.707,0,0,1,.706.708h0a.71.71,0,0,1-.706.709H463.96a.709.709,0,0,1-.708-.709h0A.707.707,0,0,1,463.96,381.284Z" fill="#ebe8f3" fill-rule="evenodd"/>
        <path id="Path_51919" data-name="Path 51919" d="M457.467,383.172a1.18,1.18,0,1,0-1.18-1.18A1.183,1.183,0,0,0,457.467,383.172Z" fill="#ebe8f3" fill-rule="evenodd"/>
        <path id="Path_51920" data-name="Path 51920" d="M463.96,387.328h73.961a.707.707,0,0,1,.706.706h0a.708.708,0,0,1-.706.708H463.96a.707.707,0,0,1-.708-.708h0A.707.707,0,0,1,463.96,387.328Z" fill="#ebe8f3" fill-rule="evenodd"/>
        <path id="Path_51921" data-name="Path 51921" d="M457.467,389.216a1.181,1.181,0,1,0-1.18-1.18A1.184,1.184,0,0,0,457.467,389.216Z" fill="#ebe8f3" fill-rule="evenodd"/>
        <path id="Path_51922" data-name="Path 51922" d="M463.96,393.369h73.961a.71.71,0,0,1,.706.709h0a.708.708,0,0,1-.706.709H463.96a.708.708,0,0,1-.708-.709h0A.71.71,0,0,1,463.96,393.369Z" fill="#ebe8f3" fill-rule="evenodd"/>
        <path id="Path_51923" data-name="Path 51923" d="M457.467,395.26a1.181,1.181,0,1,0-1.18-1.182A1.185,1.185,0,0,0,457.467,395.26Z" fill="#ebe8f3" fill-rule="evenodd"/>
        <path id="Path_51924" data-name="Path 51924" d="M463.96,399.414h73.961a.708.708,0,0,1,.706.708h0a.71.71,0,0,1-.706.709H463.96a.71.71,0,0,1-.708-.709h0A.707.707,0,0,1,463.96,399.414Z" fill="#ebe8f3" fill-rule="evenodd"/>
        <path id="Path_51925" data-name="Path 51925" d="M457.467,401.3a1.179,1.179,0,1,0-1.18-1.179A1.182,1.182,0,0,0,457.467,401.3Z" fill="#ebe8f3" fill-rule="evenodd"/>
        <path id="Path_51926" data-name="Path 51926" d="M495.273,349.521h21.676a1.315,1.315,0,0,1,1.179,1.414h0a1.318,1.318,0,0,1-1.179,1.417H495.273a1.314,1.314,0,0,1-1.176-1.417h0A1.313,1.313,0,0,1,495.273,349.521Z" fill="#ebe8f3" fill-rule="evenodd"/>
        <path id="Path_51927" data-name="Path 51927" d="M522.134,349.521h15.317a1.313,1.313,0,0,1,1.176,1.414h0a1.314,1.314,0,0,1-1.176,1.417H522.134a1.316,1.316,0,0,1-1.179-1.417h0A1.315,1.315,0,0,1,522.134,349.521Z" fill="#ebe8f3" fill-rule="evenodd"/>
      </g>
      <path id="Rectangle_4507" data-name="Rectangle 4507" d="M3.758,0H35.676a3.757,3.757,0,0,1,3.757,3.757V76.728a3.757,3.757,0,0,1-3.757,3.757H3.755A3.755,3.755,0,0,1,0,76.73V3.758A3.758,3.758,0,0,1,3.758,0Z" transform="translate(544.822 320.346)" fill="#fff"/>
      <path id="Rectangle_4508" data-name="Rectangle 4508" d="M2.374,0H40.882a2.375,2.375,0,0,1,2.375,2.375V22.569a2.377,2.377,0,0,1-2.377,2.377H2.377A2.377,2.377,0,0,1,0,22.569V2.374A2.374,2.374,0,0,1,2.374,0Z" transform="translate(494.599 320.349)" fill="#94d6f2"/>
      <path id="Path_51928" data-name="Path 51928" d="M578.819,323.871a2.065,2.065,0,1,1-2.065,2.065,2.066,2.066,0,0,1,2.065-2.065Zm-15.1,0a2.065,2.065,0,1,1-2.069,2.065,2.066,2.066,0,0,1,2.069-2.065Zm7.551,0a2.065,2.065,0,1,1-2.065,2.065A2.067,2.067,0,0,1,571.268,323.871Z" fill="#ecbe8d" fill-rule="evenodd"/>
      <path id="Path_51929" data-name="Path 51929" d="M558.24,368.611V345.359a10.053,10.053,0,0,1,20.106,0v32.984a2.394,2.394,0,1,1-2.272,0V345.359a7.781,7.781,0,0,0-15.562,0v23.217a10.08,10.08,0,0,1,9.063,10.005v9.075a4.263,4.263,0,0,1-3.466,4.18,1.651,1.651,0,0,1-1.647,1.6h-.026a1.652,1.652,0,0,1-1.65-1.647v-2.025a1.655,1.655,0,0,1,1.65-1.65h.026a1.658,1.658,0,0,1,1.626,1.372,2.1,2.1,0,0,0,.635-.428,1.977,1.977,0,0,0,.584-1.4v-9.075a7.782,7.782,0,0,0-15.563,0v9.075a1.975,1.975,0,0,0,.582,1.4,2.079,2.079,0,0,0,.635.428,1.657,1.657,0,0,1,1.626-1.372h.026a1.655,1.655,0,0,1,1.65,1.65v2.025a1.653,1.653,0,0,1-1.65,1.647h-.026a1.652,1.652,0,0,1-1.648-1.6,4.263,4.263,0,0,1-3.466-4.18v-9.075a10.08,10.08,0,0,1,8.767-9.97Z" fill="#1e1642" fill-rule="evenodd"/>
      <g id="Group_10586" data-name="Group 10586">
        <g id="Group_10585" data-name="Group 10585">
          <path id="Path_51930" data-name="Path 51930" d="M564.488,391.235a.46.46,0,0,1,0-.92h.833a2.672,2.672,0,0,0,2.66-2.659v-9.075a8.456,8.456,0,0,0-16.911,0v9.075a2.667,2.667,0,0,0,2.658,2.659h.833a.46.46,0,1,1,0,.92h-.833a3.59,3.59,0,0,1-3.58-3.579v-9.075a9.377,9.377,0,0,1,18.753,0v9.075a3.587,3.587,0,0,1-3.58,3.579Z" fill="#1e1642" fill-rule="evenodd"/>
          <g id="Group_10584" data-name="Group 10584">
            <path id="Rectangle_4509" data-name="Rectangle 4509" d="M.974,0H1a.974.974,0,0,1,.974.974V3A.976.976,0,0,1,1,3.975H.976A.976.976,0,0,1,0,3V.974A.974.974,0,0,1,.974,0Z" transform="translate(553.613 388.787)" fill="#1e1642"/>
            <path id="Rectangle_4510" data-name="Rectangle 4510" d="M.974,0H1a.974.974,0,0,1,.974.974V3A.976.976,0,0,1,1,3.975H.976A.976.976,0,0,1,0,3V.974A.974.974,0,0,1,.974,0Z" transform="translate(563.463 388.787)" fill="#1e1642"/>
          </g>
        </g>
        <path id="Path_51931" data-name="Path 51931" d="M577.209,382.17a1.719,1.719,0,1,0-1.719-1.719A1.725,1.725,0,0,0,577.209,382.17Z" fill="#1e1642" fill-rule="evenodd"/>
        <path id="Path_51932" data-name="Path 51932" d="M576.749,380.451V345.359a8.456,8.456,0,0,0-16.911,0v24.519h-.923V345.359a9.379,9.379,0,0,1,18.757,0v35.092Z" fill="#1e1642" fill-rule="evenodd"/>
      </g>
    </g>
    <path id="Path_51933" data-name="Path 51933" d="M531.758,80.237a2.518,2.518,0,1,1,5.037,0V91.57a2.518,2.518,0,1,1-5.037,0V80.237Zm-17.173,9.2a2.519,2.519,0,0,1,3.562-3.564l8.014,8.014a2.52,2.52,0,0,1-3.564,3.563l-8.012-8.013Zm-5.637,18.647a2.519,2.519,0,1,1,0-5.038H520.28a2.519,2.519,0,1,1,0,5.038Zm9.2,17.173a2.519,2.519,0,0,1-3.562-3.562l8.012-8.015a2.52,2.52,0,0,1,3.564,3.565l-8.014,8.012Zm18.648,5.637a2.518,2.518,0,1,1-5.037,0V119.562a2.518,2.518,0,1,1,5.037,0V130.9Zm17.173-9.2a2.52,2.52,0,0,1-3.565,3.562l-8.01-8.012a2.519,2.519,0,0,1,3.561-3.565l8.014,8.015Zm5.637-18.649a2.519,2.519,0,1,1,0,5.038H548.273a2.519,2.519,0,1,1,0-5.038Zm-9.2-17.173a2.52,2.52,0,0,1,3.565,3.564l-8.014,8.013a2.519,2.519,0,0,1-3.561-3.563Z" fill="#8dc7e0" fill-rule="evenodd"/>
    <g id="Group_10594" data-name="Group 10594">
      <path id="Path_51934" data-name="Path 51934" d="M273.782,93.285h0c10.227,0,18.6,14.31,18.6,31.8v25.827c0,17.49-8.368,31.8-18.6,31.8h0c-10.23,0-18.6-14.308-18.6-31.8V125.085C255.186,107.6,263.552,93.285,273.782,93.285Z" fill="#dd9187" fill-rule="evenodd"/>
      <path id="Path_51935" data-name="Path 51935" d="M278.657,160.966l-3.011.362-1.864,1.274-1.867-1.274-3.012-.362-17.749-13.925-38.547,13.171L210.688,197.2c2.879,36.761,11.493,95.7,11.493,98.554s-6.113,22.812-9.9,34.951H334.84c-3.786-12.139-9.9-32.1-9.9-34.951s9.053-61.793,11.935-98.554l-1.919-36.989-38.551-13.171Z" fill="#1e1642" fill-rule="evenodd"/>
      <path id="Path_51936" data-name="Path 51936" d="M277.938,165.4l.83,4.425,8.406,109.588L273.782,307.89,260.39,279.412l8.405-109.588.83-4.425,4.157,2.691Z" fill="#145f91" fill-rule="evenodd"/>
      <path id="Path_51937" data-name="Path 51937" d="M268.8,169.824l-3.926-8.611c3.4-3.194,14.431-3.194,17.826,0l-3.927,8.611A22.92,22.92,0,0,0,268.8,169.824Z" fill="#145f91" fill-rule="evenodd"/>
      <path id="Path_51938" data-name="Path 51938" d="M295.828,145.83l32.484,9,3.025,3.393c.711.26,8.471,1.061,9.312,11.294.883,10.775-12.39,122.81-12.39,126.234s6.179,23.021,9.96,35.138H288.5l6.636-183.712A1.723,1.723,0,0,1,295.828,145.83Z" fill="#fff" fill-rule="evenodd"/>
      <path id="Path_51939" data-name="Path 51939" d="M336.58,218.479h0L316.247,255.8s-3.654,17.464-13.4,13.806c-1.755-.658-6.1-1.75-12.025-3.1l1.407-38.935H303.86s6.5.2,9.341-3.352,14.114-24.468,14.114-24.468Z" fill="#ebe8f3" fill-rule="evenodd"/>
      <path id="Path_51940" data-name="Path 51940" d="M333.3,249.03c-2.671,24.414-5.045,45.275-5.045,46.725-18.043-6.544-23.886-10.209-30.792-9.3a17.863,17.863,0,0,0-7.491,3.416l1.6-44.422Z" fill="#ebe8f3" fill-rule="evenodd"/>
      <path id="Path_51941" data-name="Path 51941" d="M251.736,145.83l-32.241,9-2.84,3.995c-.711.261-8.9.459-9.741,10.692C206.028,180.3,219.3,292.331,219.3,295.755s-6.177,23.021-9.958,35.138h49.721l-6.634-183.712A1.731,1.731,0,0,0,251.736,145.83Z" fill="#fff" fill-rule="evenodd"/>
      <path id="Path_51942" data-name="Path 51942" d="M210.465,213.507c1.251,12.149,2.671,25.3,4,37.45,10.2,1.975,26.284,5.116,42.011,8.3l-1.142-31.611c-4.741-.419-12.694-1.149-17.064-1.7a11.97,11.97,0,0,1-9.035-6.4L221.9,198.233Z" fill="#ebe8f3" fill-rule="evenodd"/>
      <path id="Path_51943" data-name="Path 51943" d="M215,255.811c1.666,15.146,3.128,28.215,3.839,35.015,1.513-1.975,3.768-3.921,6.642-3.554,3.882.495,21.649,2.166,32.12,3.139l-1.735-48.02-4.7-.4Z" fill="#ebe8f3" fill-rule="evenodd"/>
      <g id="Group_10588" data-name="Group 10588">
        <path id="Path_51944" data-name="Path 51944" d="M266.751,235.26c-19.986-5.239-22.353-3.676-36.194,4.749-2.961,1.8-2.951,3.1-2.438,3.666,0,0-.748,2.282,1.153,3.315,0,0-2.969-1.072,1.031-.158,0,0-.335,1.611,2.449,1.838s9.54.423,9.54.423c3.876,3.189,13.994,8.677,21.334,5.122Z" fill="#eabfb9" fill-rule="evenodd"/>
        <path id="Path_51945" data-name="Path 51945" d="M265.281,234.854s-1.279-.272-3.207-.7c-1.632,4.019-6.174,15.991-8.041,20.709a14.479,14.479,0,0,0,9.593-.645Z" fill="#dd9187" fill-rule="evenodd"/>
      </g>
      <g id="Group_10589" data-name="Group 10589">
        <path id="Path_51946" data-name="Path 51946" d="M306.782,90.033c.245.035.486.077.724.128l.008,0h0a9.9,9.9,0,1,1-8.281,1.934c-.273,2.922.169,6.544,3.9,6.933l-.068-5.713A3.4,3.4,0,0,1,306.782,90.033Z" fill="#dd9187" fill-rule="evenodd"/>
        <path id="Path_51947" data-name="Path 51947" d="M241.519,90.023c-.246.031-.486.07-.727.119h-.005a9.9,9.9,0,1,0,8.252,2.048c.23,2.927-.259,6.541-3.993,6.878l.148-5.709A3.405,3.405,0,0,0,241.519,90.023Z" fill="#dd9187" fill-rule="evenodd"/>
      </g>
      <path id="Path_51948" data-name="Path 51948" d="M274.086,139.627c-18.487,0-33.91-22.812-33.91-40.822V74.879a34.007,34.007,0,0,1,33.9-33.907h.005a34.008,34.008,0,0,1,33.9,33.907V98.3C307.99,118.036,294.537,139.627,274.086,139.627Z" fill="#eabfb9" fill-rule="evenodd"/>
      <g id="Group_10590" data-name="Group 10590">
        <path id="Path_51949" data-name="Path 51949" d="M296.007,101.937a5.382,5.382,0,1,0,5.481,5.283A5.384,5.384,0,0,0,296.007,101.937Z" fill="#d7766d" fill-rule="evenodd"/>
        <path id="Path_51950" data-name="Path 51950" d="M251.96,102.793a5.383,5.383,0,1,0,5.481,5.283A5.384,5.384,0,0,0,251.96,102.793Z" fill="#d7766d" fill-rule="evenodd"/>
      </g>
      <path id="Path_51951" data-name="Path 51951" d="M262.04,83.436a1.217,1.217,0,0,1-1.005,2.216,7.967,7.967,0,0,0-7.181.463,1.221,1.221,0,1,1-1.3-2.068A10.53,10.53,0,0,1,262.04,83.436Z" fill="#1e1642" fill-rule="evenodd"/>
      <path id="Path_51952" data-name="Path 51952" d="M295.555,83.989a1.217,1.217,0,1,1-1.182,2.127,7.965,7.965,0,0,0-7.194-.124,1.222,1.222,0,0,1-1.129-2.167A10.527,10.527,0,0,1,295.555,83.989Z" fill="#1e1642" fill-rule="evenodd"/>
      <path id="Path_51953" data-name="Path 51953" d="M274.995,100.649c.632,1.716,1.737,4.823,1.642,5.343-.132.729-3.886,1.4-4.873.445-.656-.639.156-3.44.87-5.326C273.605,98.539,274.144,98.34,274.995,100.649Z" fill="#f0d4d1" fill-rule="evenodd"/>
      <g id="Group_10591" data-name="Group 10591">
        <path id="Path_51954" data-name="Path 51954" d="M281.209,114.2a7.126,7.126,0,0,1-14.251,0,1.313,1.313,0,0,1,1.311-1.311H279.9A1.314,1.314,0,0,1,281.209,114.2Z" fill="#1e1642" fill-rule="evenodd"/>
        <path id="Path_51955" data-name="Path 51955" d="M268.988,112.891h10.19V114.1a1.144,1.144,0,0,1-1.142,1.14H270.13a1.144,1.144,0,0,1-1.142-1.14Z" fill="#fff" fill-rule="evenodd"/>
        <ellipse id="Ellipse_1871" data-name="Ellipse 1871" cx="5.164" cy="2.216" rx="5.164" ry="2.216" transform="translate(268.919 116.895)" fill="#d26070"/>
      </g>
      <g id="Group_10592" data-name="Group 10592">
        <path id="Path_51956" data-name="Path 51956" d="M257.5,98.2a4.084,4.084,0,1,0-4.085-4.084A4.091,4.091,0,0,0,257.5,98.2Z" fill="#1e1642" fill-rule="evenodd"/>
        <path id="Path_51957" data-name="Path 51957" d="M290.667,98.2a4.084,4.084,0,1,0-4.085-4.084A4.089,4.089,0,0,0,290.667,98.2Z" fill="#1e1642" fill-rule="evenodd"/>
      </g>
      <path id="Path_51958" data-name="Path 51958" d="M211.668,276.065c-13.4-2.234-18.822-14.371-17.971-31.374s6.39-68.251,10.153-77.264,15.645-12.593,15.645-12.593c1.411,4.068,2.02,23.866,2.02,23.866l1.221,62.746,53.169,3.248,5.888,19.089L271.74,285.2s-.4,3.149-5.28,2.134S211.668,276.065,211.668,276.065Z" fill="#fff" fill-rule="evenodd"/>
      <path id="Path_51959" data-name="Path 51959" d="M276.534,246.734l5.259,17.049L271.74,285.2s-.4,3.149-5.28,2.134c-2.086-.437-12.437-2.568-23.587-4.86A17.879,17.879,0,0,0,246.7,275.6l7.585-20.681,4.4-3.281C266.214,248.6,272.031,247.128,276.534,246.734Z" fill="#ebe8f3" fill-rule="evenodd"/>
      <path id="Path_51960" data-name="Path 51960" d="M328.312,154.834s11.882,3.579,15.645,12.593,9.3,60.262,10.152,77.264-4.568,29.14-17.971,31.374-65.791,5.177-65.791,5.177-6.4,1.321-8.122-4.771,1.118-42.643,1.118-42.643-.1-2.334,2.742-2.384,58.985,10,58.985,10l1.219-62.746S326.9,158.9,328.312,154.834Z" fill="#fff" fill-rule="evenodd"/>
      <path id="Path_51961" data-name="Path 51961" d="M325.07,241.446,308.3,238.468l7.5-12.2,10.611-10.507s1.978-.2,2.131,1.472a19.337,19.337,0,0,1-.608,4.72l3.4-2.08a1.481,1.481,0,0,1,2.131,1.269c.407,2.03-1.724,5.025-1.724,5.025s2.486-.76,3.5.305-.658,6.042-2.943,7.057l2.753-.6s1.105.3.851,2.074-2.893,2.437-4.061,2.792Z" fill="#eabfb9" fill-rule="evenodd"/>
      <path id="Path_51962" data-name="Path 51962" d="M325.07,241.446,308.3,238.469l3.7-6.023,13.691,8.665Z" fill="#dd9187" fill-rule="evenodd"/>
      <path id="Path_51963" data-name="Path 51963" d="M240.176,97.578s3.107-1.676,3.107-9.9-.508-10.762,3.858-14.925,4.468-8.122,4.468-8.122l-12.795-5.786s-6.4,3.35-6.295,9.441,4.545,23.461,4.545,23.461S240.149,92.575,240.176,97.578Z" fill="#1e1642" fill-rule="evenodd"/>
      <path id="Path_51964" data-name="Path 51964" d="M307.99,97.578s-3.11-1.676-3.11-9.9.511-10.762-3.857-14.925-4.466-8.122-4.466-8.122l12.792-5.786s6.4,3.35,6.3,9.441S311.1,91.747,311.1,91.747,308.017,92.575,307.99,97.578Z" fill="#1e1642" fill-rule="evenodd"/>
      <path id="Path_51965" data-name="Path 51965" d="M251.344,73.718a22.624,22.624,0,1,0-22.622-22.625A22.668,22.668,0,0,0,251.344,73.718Z" fill="#1e1642" fill-rule="evenodd"/>
      <path id="Path_51966" data-name="Path 51966" d="M269.52,72.856A21.356,21.356,0,1,0,248.164,51.5,21.4,21.4,0,0,0,269.52,72.856Z" fill="#1e1642" fill-rule="evenodd"/>
      <path id="Path_51967" data-name="Path 51967" d="M294.635,71.957A17.255,17.255,0,1,0,277.38,54.7,17.289,17.289,0,0,0,294.635,71.957Z" fill="#1e1642" fill-rule="evenodd"/>
      <path id="Path_51968" data-name="Path 51968" d="M319.082,50.751c2.027,2.489.965,7.557-2.38,11.317s-7.7,4.789-9.733,2.3-.962-7.557,2.38-11.316S317.051,48.262,319.082,50.751Z" fill="#1e1642" fill-rule="evenodd"/>
      <path id="Path_51969" data-name="Path 51969" d="M285.029,29.453c2.9.043,5.793,3.728,6.454,8.233s-1.163,8.121-4.069,8.078-5.793-3.728-6.454-8.231S282.124,29.411,285.029,29.453Z" fill="#1e1642" fill-rule="evenodd"/>
      <path id="Path_51970" data-name="Path 51970" d="M292.377,139.922a6.3,6.3,0,0,1,2.158,0c.552.241,2.432,5.692,3.593,7.328a3.92,3.92,0,0,1,.277,3.606c-.774,2.262-10.9,20.831-10.9,20.831s-.719.988-1.88.026-9.983-12.822-9.983-12.822l16.731-15.347Z" fill="#36234d" fill-rule="evenodd"/>
      <path id="Path_51971" data-name="Path 51971" d="M255.186,139.72a6.247,6.247,0,0,0-2.157,0c-.553.239-2.433,5.894-3.6,7.53a3.924,3.924,0,0,0-.275,3.606c.772,2.262,10.893,20.831,10.893,20.831s.72.988,1.883.026,9.981-12.822,9.981-12.822l-16.729-15.347Z" fill="#36234d" fill-rule="evenodd"/>
      <path id="Path_51972" data-name="Path 51972" d="M326.754,204.045a.956.956,0,1,1-1.911-.06c0-.112,1.266-39.44,5.013-48.6a.955.955,0,0,1,1.769.719c-3.614,8.831-4.868,47.827-4.871,47.938Zm-103.838-2.509a.957.957,0,0,1-1.912.1c-.005-.1-1.787-35.562-5.227-45.4a.956.956,0,1,1,1.806-.629C221.115,165.7,222.911,201.432,222.916,201.536Z" fill="#ebe8f3" fill-rule="evenodd"/>
      <g id="Group_10593" data-name="Group 10593">
        <path id="Path_51973" data-name="Path 51973" d="M254.41,207.428l.036,0h.02l.04,0h.016l.043,0,.014,0,.046,0h.01l.049-.006h.007l.052-.005h.005l.054-.01h0l.054-.005h0l.052-.008h.006l.049-.01h.009l.046-.008.054-.011.015,0,.04-.009.017,0,.037-.006.021-.006.033-.008.107-.023.029-.009.025-.006.032-.009.021,0,.035-.012.018,0,.036-.011.016-.005.041-.012.01,0,.044-.014.009,0,.046-.014.006,0,.048-.017h0l.05-.02h0l.052-.018,0,0,.048-.017,0,0,.046-.017.007,0,.042-.02.011,0,.04-.017.013-.006.036-.017.015-.006.034-.015.019-.008.03-.015.021-.011.027-.015.026-.011.024-.012.025-.015.022-.008.029-.018.019-.007.031-.018.017-.009.033-.02.012-.006.037-.02.011-.006.038-.023.008-.006.041-.023.006-.006.043-.025h0l.045-.029h0l.045-.032h0l.042-.028,0,0,.04-.025.008-.006.036-.026.009-.006.036-.026.011-.009.032-.022.012-.012.029-.021.018-.01.026-.021.019-.014.023-.021.02-.017.021-.017.023-.018.019-.014.025-.023.015-.012.028-.025.013-.012.029-.023.011-.012.03-.029.009-.005.033-.032.008-.006.034-.031.005-.006.035-.035,0,0,.039-.037a4.686,4.686,0,0,0,1.381-3.32v-9.848h-1.062v-6.194a13.887,13.887,0,0,0-27.773,0v6.194h-1.064v9.848a4.688,4.688,0,0,0,1.383,3.32l.038.037,0,0,.036.035.005.006.034.031.006.006.033.032.008.005.032.029.011.012.029.023.014.012.028.025.014.012.026.023.019.014.023.018.02.017.02.017.025.021.018.014.025.021.017.01.029.021.014.012.032.022.011.009.033.026.01.006.039.026.006.006.039.025,0,0,.044.028h0l.044.032h0l.045.029h0l.042.025.006.006.04.023.007.006.04.023.01.006.036.02.012.006.036.02.015.009.03.018.021.007.027.018.023.008.026.015.025.012.024.011.026.015.022.011.03.015.019.008.033.015.016.006.036.017.013.006.04.017.01,0,.042.02.008,0,.045.017.007,0,.047.017,0,0,.051.018h0l.05.02h0l.049.017.006,0,.044.014.011,0,.041.014.013,0,.039.012.016.005.038.011.018,0,.035.012.02,0,.032.009.024.006.029.009.028.005.026.006.03.009.024,0,.034.008.02.006.038.006.017,0,.038.009.014,0,.044.008.011,0,.048.008h.007l.051.01h0l.053.008h0l.056.005h0l.054.01h0l.052.005h.007l.049.006h.011l.046,0,.014,0,.042,0h.018l.038,0h.02l.038,0v-.969a1.728,1.728,0,0,1,1.723-1.724h.043A1.73,1.73,0,0,1,237,206.459v3.576a1.73,1.73,0,0,1-1.725,1.725h-.043a1.729,1.729,0,0,1-1.723-1.725v-.978h-.041l-.038,0h-.043l-.034,0-.046,0-.032,0-.048,0-.029,0-.051,0-.024,0-.056,0-.022,0-.058-.006-.018,0-.06-.005-.016,0-.063-.008-.013,0-.065-.009-.01,0-.07-.008-.005,0-.072-.012h0l-.074-.014-.075-.015h0l-.071-.017h-.008l-.066-.014-.01,0-.063-.014-.013,0-.06-.017-.015,0-.058-.015-.019,0-.054-.014-.021-.006-.05-.015-.025-.008-.048-.015-.025-.008-.046-.015-.029-.008-.042-.015-.032-.008-.038-.014-.034-.012-.036-.015-.037-.011-.034-.012-.038-.017-.03-.011-.042-.015-.028-.011-.045-.018-.023-.011-.047-.02-.021-.009-.05-.02-.019-.009-.051-.023-.017-.006-.054-.026-.012,0-.058-.029-.008,0-.061-.031-.005,0-.062-.029-.005,0-.063-.034h0l-.065-.035h0l-.062-.034,0,0-.059-.035-.007,0-.057-.035-.008-.006-.055-.031-.011-.006-.051-.032-.014-.008-.048-.032-.017-.008-.045-.031-.018-.013-.043-.029-.021-.014-.039-.026-.024-.017-.037-.023-.025-.021-.034-.022-.029-.021-.03-.022-.031-.023-.029-.021-.031-.026-.026-.02-.034-.026-.024-.018-.035-.032-.022-.014-.037-.031-.02-.017-.04-.033-.015-.014-.042-.035-.013-.011-.043-.04-.012-.009-.046-.04-.009-.009-.046-.043-.007-.006-.049-.046,0-.006-.051-.049h0l-.052-.051a6.323,6.323,0,0,1-1.859-4.474v-9.848h-1.064v-6.194a17.7,17.7,0,0,1,15.394-17.5v-5.7h4.208v5.67A17.7,17.7,0,0,1,261.6,186.688v6.194h-1.063v9.848a6.322,6.322,0,0,1-1.858,4.474l-.052.051h0l-.05.049,0,.006-.05.046-.005.006-.048.043-.008.009-.045.04-.012.009-.043.04-.015.011-.041.035-.016.014-.038.033-.02.017-.039.031-.02.014-.036.032-.024.018-.034.026-.026.02-.031.026-.029.021-.03.023-.032.022-.028.021-.034.022-.025.021-.037.023-.024.017-.038.026-.022.014-.043.029-.019.013-.045.031-.015.008-.05.032-.012.008-.053.032-.011.006-.053.031-.009.006-.057.035-.006,0-.061.035,0,0-.062.034h0l-.064.035h0l-.065.034,0,0-.063.029-.007,0-.059.031-.01,0-.057.029-.012,0-.055.026-.015.006-.053.023-.017.009-.051.02-.02.009-.047.02-.023.011-.047.018-.025.011-.044.015-.029.011-.04.017-.033.012-.037.011-.035.015-.035.012-.039.014-.032.008-.041.015-.029.008-.044.015-.028.008-.048.015-.023.008-.052.015-.02.006-.055.014-.017,0-.058.015-.015,0-.061.017-.012,0-.065.014-.008,0-.068.014h-.006l-.071.017h0l-.073.015-.075.014h0l-.072.012-.006,0-.07.008-.008,0L255.1,209l-.012,0-.065.008-.014,0-.06.005-.02,0-.057.006-.021,0-.056,0-.025,0-.05,0-.03,0-.049,0-.032,0-.046,0-.033,0h-.043l-.038,0h-.04v.978a1.73,1.73,0,0,1-1.724,1.725h-.043a1.728,1.728,0,0,1-1.724-1.725v-3.576a1.728,1.728,0,0,1,1.724-1.724h.043a1.729,1.729,0,0,1,1.724,1.724Z" fill="#36234d" fill-rule="evenodd"/>
        <path id="Path_51974" data-name="Path 51974" d="M244.8,170.487a.957.957,0,1,1-1.915,0V152.993a18.234,18.234,0,0,1,12.269-17.164v2.042A16.315,16.315,0,0,0,244.8,152.993Z" fill="#36234d" fill-rule="evenodd"/>
        <path id="Path_51975" data-name="Path 51975" d="M302.624,195.96a.958.958,0,0,0,1.915,0V152.993a18.234,18.234,0,0,0-12.269-17.164v2.042a16.319,16.319,0,0,1,10.354,15.122Z" fill="#36234d" fill-rule="evenodd"/>
        <path id="Path_51976" data-name="Path 51976" d="M303.519,200.815a4.61,4.61,0,1,1,4.61-4.611A4.618,4.618,0,0,1,303.519,200.815Z" fill="#36234d" fill-rule="evenodd"/>
      </g>
    </g>
  </g>
</svg>
